<?xml version="1.0" encoding="UTF-8"?>
<svg width="1678pt" height="1572pt" version="1.0" viewBox="0 0 1678 1572" xmlns="http://www.w3.org/2000/svg" xmlns:cc="http://creativecommons.org/ns#" xmlns:dc="http://purl.org/dc/elements/1.1/" xmlns:rdf="http://www.w3.org/1999/02/22-rdf-syntax-ns#">
 <metadata>Created by potrace 1.16, written by Peter Selinger 2001-2019
  <rdf:RDF>
   <cc:Work rdf:about="">
    <dc:format>image/svg+xml</dc:format>
    <dc:type rdf:resource="http://purl.org/dc/dcmitype/StillImage"/>
    <dc:title/>
   </cc:Work>
  </rdf:RDF>
 </metadata>
 <g transform="translate(0 1572) scale(.1 -.1)" fill="#2b3b64">
  <path d="m6260 13925c0-58-2-65-20-65-11 0-20-7-20-15s-7-15-15-15c-10 0-15-11-15-35s-5-35-15-35c-8 0-15-7-15-15s-9-15-20-15-20-7-20-15-7-15-15-15c-10 0-15-11-15-35s-5-35-15-35c-8 0-15-7-15-15s-7-15-15-15c-10 0-15-11-15-35 0-28-4-35-20-35-11 0-20-7-20-15s-7-15-15-15c-10 0-15-10-15-30s-5-30-15-30c-8 0-15-9-15-20 0-13-7-20-20-20-11 0-20-7-20-15s-7-15-15-15c-10 0-15-11-15-35s-5-35-15-35c-8 0-15-7-15-15s-7-15-15-15c-10 0-15-10-15-30 0-23-4-30-20-30s-20-7-20-35c0-24-5-35-15-35-8 0-15-7-15-15s-7-15-15-15c-10 0-15-11-15-35s-5-35-15-35c-8 0-15-7-15-15s-9-15-20-15c-16 0-20-7-20-35 0-24-5-35-15-35s-15-10-15-30-5-30-15-30c-8 0-15-6-15-14 0-7-9-16-20-19-15-4-20-14-20-36 0-21-5-31-15-31s-15-11-15-35-5-35-15-35c-8 0-15-7-15-15s-7-15-15-15c-10 0-15-10-15-30 0-23-4-30-20-30s-20-7-20-35c0-24-5-35-15-35s-15-10-15-30-5-30-15-30-15-11-15-35c0-28-4-35-20-35s-20-7-20-35c0-24-5-35-15-35s-15-10-15-30-5-30-15-30c-8 0-15-7-15-15s-7-15-15-15c-10 0-15-11-15-35 0-28-4-35-20-35-17 0-20-7-20-50 0-38-4-50-15-50-10 0-15-10-15-30s-5-30-15-30-15-11-15-35-5-35-15-35-15-10-15-30c0-23-4-30-20-30s-20-7-20-35c0-24-5-35-15-35-11 0-15-12-15-50s-4-50-15-50c-10 0-15-10-15-29 0-20-6-30-20-34-15-4-20-14-20-36 0-21-5-31-15-31-11 0-15-12-15-50s-4-50-15-50-15-12-15-50-4-50-15-50c-10 0-15-10-15-30 0-23-4-30-20-30-17 0-20-7-20-50 0-38-4-50-15-50s-15-12-15-50-4-50-15-50c-12 0-15-14-15-65 0-58-2-65-20-65-17 0-20-7-20-50 0-38-4-50-15-50-12 0-15-14-15-65s-3-65-15-65-15-16-15-80-3-80-15-80-15-18-15-100c0-93-1-100-20-100s-20-7-20-130c0-109-2-130-15-130s-15-38-15-285 2-285 15-285c12 0 15-19 15-115 0-108 1-115 20-115 18 0 20-7 20-80 0-64 3-80 15-80 11 0 15-12 15-50s4-50 15-50 15-12 15-50 4-50 15-50 15-12 15-46c0-37 4-47 20-51 14-4 20-14 20-34 0-19 5-29 15-29s15-11 15-35 5-35 15-35 15-10 15-30c0-23 4-30 20-30s20-7 20-35c0-24 5-35 15-35 8 0 15-7 15-15s7-15 15-15c10 0 15-11 15-35s5-35 15-35c8 0 15-7 15-15s9-15 20-15c16 0 20-7 20-30 0-20 5-30 15-30 8 0 15-9 15-20s7-20 15-20 15-7 15-15 9-15 20-15 20-7 20-15 7-15 15-15c10 0 15-11 15-35s5-35 15-35c8 0 15-7 15-15s7-15 15-15 15-7 15-15 9-15 20-15c13 0 20-7 20-20 0-11 7-20 15-20s15-7 15-15 7-15 15-15 15-7 15-15c0-10 11-15 35-15s35-5 35-15c0-8 7-15 15-15s15-9 15-20 7-20 15-20 15-7 15-15 9-15 20-15 20-7 20-15c0-10 10-15 30-15 23 0 30-4 30-20 0-11 7-20 15-20s15-7 15-15 9-15 20-15 20-7 20-15c0-10 10-15 30-15s30-5 30-15 11-15 35-15c28 0 35-4 35-20 0-11 7-20 15-20s15-7 15-15c0-10 11-15 35-15s35-5 35-15 10-15 30-15c23 0 30-4 30-20s7-20 35-20c24 0 35-5 35-15 0-8 7-15 15-15s15-7 15-15c0-10 11-15 35-15s35-5 35-15 10-15 30-15c23 0 30-4 30-20 0-11 7-20 15-20s15-7 15-15c0-10 11-15 35-15s35-5 35-15c0-8 7-15 15-15s15-7 15-15c0-10 11-15 35-15 28 0 35-4 35-20 0-11 7-20 15-20s15-7 15-15 7-15 15-15 15-7 15-15c0-10 11-15 35-15 28 0 35-4 35-20 0-11 7-20 15-20s15-7 15-15 7-15 15-15 15-7 15-15c0-10 11-15 35-15s35-5 35-15c0-8 7-15 15-15s15-9 15-20c0-13 7-20 20-20 11 0 20-7 20-15s7-15 15-15 15-7 15-15 7-15 15-15 15-9 15-20 7-20 15-20 15-7 15-15 9-15 20-15 20-7 20-15 7-15 15-15 15-7 15-15 7-15 15-15 15-9 15-20c0-13 7-20 20-20 11 0 20-7 20-15s7-15 15-15 15-7 15-15 7-15 15-15 15-7 15-15 7-15 15-15c10 0 15-11 15-35 0-28 4-35 20-35 11 0 20-7 20-15s7-15 15-15 15-9 15-20 7-20 15-20c10 0 15-10 15-30s5-30 15-30c8 0 15-7 15-15s9-15 20-15c16 0 20-7 20-35 0-24 5-35 15-35s15-11 15-35 5-35 15-35c8 0 15-7 15-15s9-15 20-15c16 0 20-7 20-30 0-20 5-30 15-30 11 0 15-12 15-50s4-50 15-50c10 0 15-11 15-35s5-35 15-35c11 0 15-12 15-46 0-37 4-47 20-51 17-5 20-14 20-69 0-50 3-64 15-64s15-19 15-115 3-115 15-115c13 0 15-22 15-140s-2-140-15-140c-12 0-15-19-15-115s-3-115-15-115-15-16-15-85c0-78-2-85-20-85-17 0-20-7-20-45 0-33-4-45-15-45s-15-12-15-50-4-50-15-50-15-12-15-50-4-50-15-50c-10 0-15-11-15-35 0-28-4-35-20-35s-20-7-20-30c0-20-5-30-15-30-11 0-15-12-15-50s-4-50-15-50c-10 0-15-11-15-35 0-28-4-35-20-35-11 0-20-7-20-15s-7-15-15-15c-10 0-15-10-15-30s-5-30-15-30-15-11-15-35-5-35-15-35c-8 0-15-7-15-15s-9-15-20-15c-13 0-20-7-20-20 0-17-7-20-45-20-33 0-45-4-45-15 0-10-11-15-35-15s-35-5-35-15c0-8-7-15-15-15s-15-6-15-14c0-7-9-16-20-19s-20-12-20-21-7-16-15-16c-12 0-15-18-15-100s3-100 15-100c8 0 15-7 15-15s-7-15-15-15c-10 0-15-10-15-30s-5-30-15-30-15-11-15-35-5-35-15-35-15-10-15-30c0-23-4-30-20-30s-20-7-20-35c0-24-5-35-15-35s-15-10-15-30-5-30-15-30-15-11-15-35c0-28-4-35-20-35-17 0-20-7-20-50 0-38-4-50-15-50-13 0-15-23-15-150s2-150 15-150c11 0 15-12 15-50 0-43 3-50 20-50 11 0 20-7 20-15s7-15 15-15c10 0 15-11 15-35 0-33 2-35 35-35 24 0 35-5 35-15 0-8 7-15 15-15s15-7 15-15c0-10 10-15 29-15 20 0 30-6 34-20 4-17 14-20 71-20 52 0 66-3 66-15 0-11 12-15 50-15s50 4 50 15 12 15 50 15c43 0 50 3 50 20 0 16 7 20 35 20 24 0 35 5 35 15 0 8 7 15 15 15s15 7 15 15 7 15 15 15 15 9 15 20 7 20 15 20 15 7 15 15 9 15 20 15 20 7 20 15 7 15 15 15c10 0 15 11 15 35s5 35 15 35 15 10 15 30c0 23 4 30 20 30 17 0 20 7 20 50 0 38 4 50 15 50 13 0 15 29 15 200s-2 200-15 200c-8 0-15 7-15 15 0 11-11 15-40 15-38 0-40-2-40-30 0-20-5-30-15-30s-15-11-15-35-5-35-15-35c-8 0-15-7-15-15s-9-15-20-15c-16 0-20-7-20-30 0-20-5-30-15-30-8 0-15-9-15-20s-7-20-15-20-15-7-15-15-9-15-20-15-20-7-20-15-7-15-15-15-15-9-15-20-7-20-15-20c-10 0-15-11-15-35s5-35 15-35c11 0 15-12 15-45s-4-45-15-45c-8 0-15-7-15-15 0-10-11-15-35-15s-35-5-35-15c0-12-15-15-75-15s-75 3-75 15c0 8-7 15-15 15-10 0-15 10-15 30 0 23-4 30-20 30-19 0-20 7-20 95s1 95 20 95c16 0 20 7 20 35 0 24 5 35 15 35s15 10 15 30 5 30 15 30 15 11 15 35 5 35 15 35 15 10 15 30c0 23 4 30 20 30s20 7 20 35c0 24 5 35 15 35s15 10 15 30 5 30 15 30c8 0 15 9 15 20 0 16 7 20 35 20 24 0 35 5 35 15s10 15 30 15c19 0 30 5 30 14 0 7 9 16 20 19 15 4 20 14 20 36 0 21 5 31 15 31 12 0 15 18 15 100s3 100 15 100c10 0 15 10 15 30s5 30 15 30c8 0 15 7 15 15s9 15 20 15c16 0 20 7 20 35 0 24 5 35 15 35s15 10 15 30 5 30 15 30 15 11 15 35c0 28 4 35 20 35s20 7 20 35c0 24 5 35 15 35s15 10 15 30 5 30 15 30 15 11 15 35 5 35 15 35c11 0 15 12 15 45 0 38 3 45 20 45 16 0 20 7 20 35 0 24 5 35 15 35 11 0 15 12 15 50s4 50 15 50c12 0 15 14 15 65s3 65 15 65 15 14 15 65c0 58 2 65 20 65 19 0 20 7 20 115 0 96 3 115 15 115 13 0 15 34 15 250s-2 250-15 250c-12 0-15 18-15 100 0 93-1 100-20 100-18 0-20 7-20 65 0 51-3 65-15 65-11 0-15 12-15 50s-4 50-15 50-15 12-15 50-4 50-15 50c-10 0-15 10-15 30 0 23-4 30-20 30s-20 7-20 35c0 24-5 35-15 35s-15 10-15 30-5 30-15 30-15 11-15 35-5 35-15 35-15 10-15 30c0 23-4 30-20 30-13 0-20 7-20 20 0 11-7 20-15 20-10 0-15 10-15 30s-5 30-15 30c-8 0-15 7-15 15s-9 15-20 15c-16 0-20 7-20 35 0 24-5 35-15 35-8 0-15 7-15 15s-7 15-15 15-15 9-15 20-7 20-15 20-15 7-15 15-9 15-20 15c-16 0-20 7-20 30 0 20-5 30-15 30-8 0-15 9-15 20s-7 20-15 20-15 7-15 15-7 15-15 15-15 7-15 15-9 15-20 15-20 7-20 15-7 15-15 15-15 9-15 20-7 20-15 20-15 7-15 15-9 15-20 15-20 7-20 15-7 15-15 15-15 9-15 20c0 16-7 20-30 20-20 0-30 5-30 15 0 8-9 15-20 15s-20 7-20 15-7 15-15 15-15 7-15 15-7 15-15 15-15 9-15 20c0 13-7 20-20 20-11 0-20 7-20 15 0 10-10 15-30 15s-30 5-30 15c0 8-6 15-14 15-7 0-16 9-19 20s-12 20-21 20-16 7-16 15c0 10-10 15-30 15s-30 5-30 15c0 8-7 15-15 15s-15 7-15 15c0 10-11 15-35 15-28 0-35 4-35 20 0 11-7 20-15 20s-15 7-15 15c0 10-11 15-35 15s-35 5-35 15-10 15-30 15-30 5-30 15c0 8-9 15-20 15-13 0-20 7-20 20 0 16-7 20-30 20-20 0-30 5-30 15s-11 15-35 15-35 5-35 15-10 15-29 15c-20 0-30 6-34 20-3 11-12 20-21 20s-16 7-16 15c0 10-10 15-30 15s-30 5-30 15-11 15-35 15-35 5-35 15c0 8-7 15-15 15s-15 9-15 20c0 16-7 20-35 20-24 0-35 5-35 15 0 8-7 15-15 15s-15 7-15 15-7 15-15 15-15 7-15 15c0 10-11 15-35 15-28 0-35 4-35 20 0 11-7 20-15 20s-15 7-15 15-7 15-15 15-15 7-15 15-9 15-20 15c-13 0-20 7-20 20 0 11-7 20-15 20s-15 7-15 15-7 15-15 15-15 7-15 15-7 15-15 15-15 7-15 15-9 15-20 15c-13 0-20 7-20 20 0 11-7 20-15 20s-15 7-15 15-7 15-15 15-15 7-15 15-7 15-15 15c-10 0-15 11-15 35 0 28-4 35-20 35-11 0-20 7-20 15s-7 15-15 15c-10 0-15 11-15 35s-5 35-15 35c-8 0-15 7-15 15s-9 15-20 15c-16 0-20 7-20 30 0 20-5 30-15 30s-15 11-15 35-5 35-15 35-15 11-15 35-5 35-15 35-15 10-15 30c0 23-4 30-20 30s-20 7-20 35c0 24-5 35-15 35-11 0-15 12-15 50s-4 50-15 50c-12 0-15 14-15 65 0 58-2 65-20 65s-20 7-20 65c0 51-3 65-15 65-13 0-15 23-15 145s-2 145-15 145-15 23-15 145 2 145 15 145 15 25 15 165 2 165 15 165c12 0 15 16 15 80 0 73 2 80 20 80s20 7 20 80c0 64 3 80 15 80s15 14 15 70 3 70 15 70 15 14 15 65c0 58 2 65 20 65 17 0 20 7 20 45 0 33 4 45 15 45s15 12 15 50 4 50 15 50 15 12 15 50 4 50 15 50 15 12 15 50c0 43 3 50 20 50s20 7 20 50c0 38 4 50 15 50 10 0 15 10 15 30s5 30 15 30c11 0 15 12 15 50 0 43 3 50 20 50 16 0 20 7 20 35 0 24 5 35 15 35s15 10 15 30 5 30 15 30 15 11 15 35 5 35 15 35c11 0 15 12 15 50 0 43 3 50 20 50 16 0 20 7 20 30 0 20 5 30 15 30s15 11 15 35 5 35 15 35 15 10 15 30 5 30 15 30 15 11 15 35c0 28 4 35 20 35s20 7 20 30c0 20 5 30 15 30s15 11 15 35 5 35 15 35 15 11 15 35c0 28 4 35 20 35 11 0 20 7 20 15s7 15 15 15c10 0 15 10 15 30s5 30 15 30 15 11 15 35 5 35 15 35 15 11 15 35c0 28 4 35 20 35 11 0 20 7 20 15s7 15 15 15c10 0 15 10 15 30s5 30 15 30 15 11 15 35c0 28 4 35 20 35 11 0 20 7 20 15s7 15 15 15c10 0 15 11 15 35s5 35 15 35 15 10 15 30 5 30 15 30c8 0 15 9 15 20 0 13 7 20 20 20 16 0 20 7 20 30 0 20 5 30 15 30 8 0 15 7 15 15s7 15 15 15c10 0 15 11 15 35s5 35 15 35 15 11 15 35c0 28 4 35 20 35 11 0 20 7 20 15s7 15 15 15c10 0 15 10 15 30s5 30 15 30c8 0 15 9 15 20 0 13 7 20 20 20 11 0 20 7 20 15s7 15 15 15c10 0 15 10 15 30s5 30 15 30c8 0 15 9 15 20s7 20 15 20c10 0 15 10 15 30 0 23 4 30 20 30 13 0 20 7 20 20 0 11 7 20 15 20s15 7 15 15 7 15 15 15c10 0 15 10 15 30s5 30 15 30c8 0 15-7 15-15s7-15 15-15 15-7 15-15 7-15 15-15c10 0 15-11 15-35s5-35 15-35 15-10 15-30c0-23 4-30 20-30 13 0 20-7 20-20 0-11 7-20 15-20 10 0 15-10 15-30s5-30 15-30 15-11 15-35c0-28 4-35 20-35s20-7 20-30c0-20 5-30 15-30 8 0 15-7 15-15s7-15 15-15c10 0 15-11 15-35s5-35 15-35 15-10 15-31c0-22 5-32 20-36 11-3 20-12 20-19 0-8 7-14 15-14 10 0 15-10 15-30s5-30 15-30c8 0 15-9 15-20 0-13 7-20 20-20 16 0 20-7 20-30 0-20 5-30 15-30 8 0 15-9 15-20s7-20 15-20 15-7 15-15 7-15 15-15c10 0 15-10 15-30 0-23 4-30 20-30 13 0 20-7 20-20 0-11 7-20 15-20 10 0 15-10 15-30s5-30 15-30c8 0 15-7 15-15s7-15 15-15c10 0 15-11 15-35 0-28 4-35 20-35 11 0 20-7 20-15s7-15 15-15 15-9 15-20 7-20 15-20c10 0 15-10 15-30 0-23 4-30 20-30 11 0 20-7 20-15s7-15 15-15c10 0 15-11 15-35s5-35 15-35c8 0 15-7 15-15s7-15 15-15c10 0 15-11 15-35 0-28 4-35 20-35 11 0 20-7 20-15s7-15 15-15c10 0 15-11 15-35s5-35 15-35c8 0 15-7 15-15s9-15 20-15c16 0 20-7 20-30 0-20 5-30 15-30 8 0 15-9 15-20s7-20 15-20c10 0 15-10 15-30s5-30 15-30c8 0 15-7 15-16s9-18 20-21c14-4 20-14 20-34 0-19 5-29 15-29 8 0 15-7 15-15s7-15 15-15c10 0 15-11 15-35s5-35 15-35c8 0 15-7 15-15s9-15 20-15c16 0 20-7 20-35 0-24 5-35 15-35s15-10 15-30 5-30 15-30c8 0 15-9 15-20 0-13 7-20 20-20 16 0 20-7 20-30 0-20 5-30 15-30 8 0 15-7 15-15s7-15 15-15c10 0 15-11 15-35s5-35 15-35 15-10 15-31c0-22 5-32 20-36 11-3 20-12 20-19 0-8 7-14 15-14 10 0 15-10 15-30s5-30 15-30c8 0 15-9 15-20 0-13 7-20 20-20 16 0 20-7 20-30 0-20 5-30 15-30s15-11 15-35 5-35 15-35c8 0 15-7 15-15s7-15 15-15c10 0 15-11 15-35 0-28 4-35 20-35s20-7 20-30c0-20 5-30 15-30 8 0 15-7 15-15s7-15 15-15c10 0 15-11 15-35s5-35 15-35 15-10 15-31c0-22 5-32 20-36 14-4 20-14 20-34 0-19 5-29 15-29 8 0 15-7 15-15s7-15 15-15c10 0 15-11 15-35 0-28 4-35 20-35s20-7 20-35c0-24 5-35 15-35s15-10 15-30 5-30 15-30c8 0 15-7 15-15s7-15 15-15c10 0 15-11 15-35 0-28 4-35 20-35s20-7 20-30c0-20 5-30 15-30s15-11 15-35 5-35 15-35 15-11 15-35 5-35 15-35c8 0 15-7 15-15s9-15 20-15c16 0 20-7 20-30 0-20 5-30 15-30s15-11 15-35 5-35 15-35 15-10 15-31c0-22 5-32 20-36 14-4 20-14 20-34 0-19 5-29 15-29s15-11 15-35 5-35 15-35 15-10 15-30 5-30 15-30c8 0 15-7 15-15s9-15 20-15c16 0 20-7 20-35 0-24 5-35 15-35s15-11 15-35 5-35 15-35 15-10 15-30c0-23 4-30 20-30s20-7 20-35c0-24 5-35 15-35s15-10 15-30 5-30 15-30 15-11 15-35 5-35 15-35 15-10 15-30 5-30 15-30 15-10 15-30c0-18 6-33 15-36 9-4 15-19 15-35 0-22 5-29 20-29 16 0 20-7 20-35 0-24 5-35 15-35s15-10 15-30c0-18 6-33 15-36 8-4 15-17 15-31 0-16 7-27 20-30 15-4 20-14 20-39 0-24 5-34 15-34s15-10 15-30 5-30 15-30c11 0 15-12 15-50s4-50 15-50c10 0 15-10 15-31 0-22 5-32 20-36 14-4 20-14 20-34 0-19 5-29 15-29s15-11 15-35 5-35 15-35 15-10 15-30 5-30 15-30 15-10 15-31c0-22 5-32 20-36 17-4 20-14 20-54 0-37 4-49 15-49 10 0 15-10 15-30s5-30 15-30 15-10 15-31c0-22 5-32 20-36 14-4 20-14 20-34 0-19 5-29 15-29 11 0 15-12 15-50s4-50 15-50c10 0 15-10 15-30 0-18 6-33 15-36 9-4 15-19 15-35 0-22 5-29 20-29 17 0 20-7 20-50 0-38 4-50 15-50 10 0 15-11 15-35s5-35 15-35 15-10 15-30c0-23 4-30 20-30 17 0 20-7 20-50 0-38 4-50 15-50 10 0 15-10 15-30 0-18 6-33 15-36 10-4 15-20 15-50 0-32 4-44 15-44 10 0 15-10 15-31 0-22 5-32 20-36 17-4 20-14 20-54 0-37 4-49 15-49 10 0 15-10 15-30s5-30 15-30c11 0 15-12 15-50s4-50 15-50c10 0 15-10 15-31 0-22 5-32 20-36 16-4 20-14 20-49 0-30 5-46 15-50 9-4 15-19 15-35 0-19 5-29 15-29 11 0 15-12 15-46 0-37 4-47 20-51 17-4 20-14 20-54 0-37 4-49 15-49 10 0 15-10 15-30s5-30 15-30c11 0 15-12 15-50s4-50 15-50 15-12 15-46c0-37 4-47 20-51 17-4 20-14 20-54 0-37 4-49 15-49 10 0 15-10 15-30s5-30 15-30c11 0 15-12 15-50 0-43 3-50 20-50s20-7 20-50c0-38 4-50 15-50s15-12 15-50 4-50 15-50 15-12 15-45c0-31 5-47 15-51s15-20 15-51c0-36 4-46 20-50s20-14 20-49c0-32 4-44 15-44s15-12 15-50 4-50 15-50 15-12 15-50 4-50 15-50 15-12 15-46c0-37 4-47 20-51 17-5 20-14 20-69 0-50 3-64 15-64 11 0 15-12 15-45 0-31 5-47 15-51s15-20 15-51c0-36 4-46 20-50 17-5 20-14 20-69 0-50 3-64 15-64 11 0 15-12 15-45 0-31 5-47 15-51s15-20 15-50c0-32 4-44 15-44s15-12 15-50v-50h75c60 0 75 3 75 15 0 11 12 15 50 15s50 4 50 15c0 12 14 15 65 15 58 0 65 2 65 20s7 20 65 20c51 0 65 3 65 15 0 11 12 15 50 15s50 4 50 15c0 8 7 15 15 15 11 0 15 11 15 40s-4 40-15 40-15 12-15 45c0 38-3 45-20 45s-20 7-20 50c0 38-4 50-15 50s-15 12-15 50-4 50-15 50-15 12-15 50-4 50-15 50-15 12-15 50c0 43-3 50-20 50s-20 7-20 50c0 38-4 50-15 50s-15 12-15 45-4 45-15 45-15 12-15 50-4 50-15 50-15 12-15 50c0 43-3 50-20 50s-20 7-20 50c0 38-4 50-15 50s-15 12-15 50-4 50-15 50-15 12-15 46c0 37-4 47-20 51s-20 14-20 49c0 32-4 44-15 44-10 0-15 11-15 35s-5 35-15 35c-11 0-15 12-15 50s-4 50-15 50-15 12-15 46c0 37-4 47-20 51-14 4-20 14-20 34 0 19-5 29-15 29-11 0-15 12-15 50s-4 50-15 50-15 12-15 50-4 50-15 50c-10 0-15 10-15 30 0 23-4 30-20 30-17 0-20 7-20 50 0 38-4 50-15 50-10 0-15 11-15 35s-5 35-15 35c-11 0-15 12-15 46 0 37-4 47-20 51-14 4-20 14-20 34 0 19-5 29-15 29-11 0-15 12-15 50s-4 50-15 50c-10 0-15 11-15 35s-5 35-15 35c-11 0-15 12-15 45 0 38-3 45-20 45-16 0-20 7-20 35 0 24-5 35-15 35s-15 10-15 30-5 30-15 30c-11 0-15 12-15 50 0 43-3 50-20 50-16 0-20 7-20 35 0 24-5 35-15 35s-15 10-15 30-5 30-15 30c-11 0-15 12-15 50s-4 50-15 50c-10 0-15 11-15 35 0 28-4 35-20 35s-20 7-20 30c0 20-5 30-15 30-11 0-15 12-15 50s-4 50-15 50c-10 0-15 11-15 35s-5 35-15 35-15 10-15 30c0 23-4 30-20 30s-20 7-20 35c0 24-5 35-15 35s-15 10-15 30-5 30-15 30-15 11-15 35c0 28-4 35-20 35-17 0-20 7-20 50 0 38-4 50-15 50-10 0-15 10-15 30s-5 30-15 30-15 11-15 35-5 35-15 35-15 10-15 30c0 23-4 30-20 30s-20 7-20 35c0 24-5 35-15 35s-15 11-15 35-5 35-15 35-15 10-15 30c0 23-4 30-20 30s-20 7-20 35c0 24-5 35-15 35s-15 10-15 30-5 30-15 30-15 11-15 35-5 35-15 35-15 10-15 30c0 23-4 30-20 30s-20 7-20 35c0 24-5 35-15 35s-15 10-15 30-5 30-15 30-15 11-15 35-5 35-15 35-15 10-15 31c0 22-5 32-20 36-14 4-20 14-20 34 0 19-5 29-15 29s-15 11-15 35-5 35-15 35-15 10-15 30c0 23-4 30-20 30s-20 7-20 35c0 24-5 35-15 35s-15 10-15 30-5 30-15 30-15 11-15 35-5 35-15 35c-8 0-15 7-15 15s-9 15-20 15c-16 0-20 7-20 35 0 24-5 35-15 35s-15 10-15 30-5 30-15 30-15 11-15 35c0 28-4 35-20 35s-20 7-20 30c0 20-5 30-15 30s-15 11-15 35-5 35-15 35c-8 0-15 7-15 15s-7 15-15 15c-10 0-15 11-15 35 0 28-4 35-20 35s-20 7-20 30c0 20-5 30-15 30s-15 11-15 35-5 35-15 35c-8 0-15 7-15 15s-7 15-15 15c-10 0-15 11-15 35 0 28-4 35-20 35s-20 7-20 30c0 20-5 30-15 30s-15 11-15 35-5 35-15 35c-8 0-15 7-15 15s-9 15-20 15c-16 0-20 7-20 35 0 24-5 35-15 35s-15 10-15 30-5 30-15 30c-8 0-15 7-15 15s-7 15-15 15c-10 0-15 11-15 35 0 28-4 35-20 35s-20 7-20 35c0 24-5 35-15 35-8 0-15 7-15 15s-7 15-15 15c-10 0-15 10-15 30 0 23-4 30-20 30s-20 7-20 35c0 24-5 35-15 35-8 0-15 7-15 15s-7 15-15 15c-10 0-15 11-15 35s-5 35-15 35-15 10-15 30c0 23-4 30-20 30-13 0-20 7-20 20 0 11-7 20-15 20-10 0-15 10-15 30s-5 30-15 30c-8 0-15 7-15 15s-7 15-15 15c-10 0-15 11-15 35 0 28-4 35-20 35s-20 7-20 35c0 24-5 35-15 35-8 0-15 7-15 15s-7 15-15 15c-10 0-15 10-15 30 0 23-4 30-20 30-13 0-20 7-20 20 0 11-7 20-15 20-10 0-15 10-15 30s-5 30-15 30c-8 0-15 9-15 20s-7 20-15 20c-10 0-15 10-15 30 0 23-4 30-20 30s-20 7-20 35c0 24-5 35-15 35-8 0-15 7-15 15s-7 15-15 15c-10 0-15 10-15 30 0 23-4 30-20 30-13 0-20 7-20 20 0 11-7 20-15 20-10 0-15 10-15 30s-5 30-15 30c-8 0-15 9-15 20s-7 20-15 20c-10 0-15 10-15 30 0 23-4 30-20 30-11 0-20 7-20 15s-7 15-15 15-15 9-15 20-7 20-15 20c-10 0-15 10-15 30s-5 30-15 30c-8 0-15 7-15 15s-9 15-20 15c-16 0-20 7-20 35 0 24-5 35-15 35-8 0-15 7-15 15s-7 15-15 15c-10 0-15 11-15 35 0 28-4 35-20 35-11 0-20 7-20 15s-7 15-15 15c-10 0-15 11-15 35s-5 35-15 35c-8 0-15 7-15 15s-7 15-15 15-15 7-15 15-9 15-20 15c-16 0-20 7-20 35 0 24-5 35-15 35-8 0-15 7-15 15s-7 15-15 15c-10 0-15 11-15 35 0 28-4 35-20 35-11 0-20 7-20 15s-7 15-15 15-15 7-15 15-7 15-15 15c-10 0-15 11-15 35s-5 35-15 35c-8 0-15 7-15 15s-9 15-20 15c-16 0-20 7-20 35 0 24-5 35-15 35-8 0-15 7-15 15s-7 15-15 15-15 7-15 15-7 15-15 15c-10 0-15 11-15 35 0 28-4 35-20 35-11 0-20 7-20 15s-7 15-15 15-15 7-15 15-7 15-15 15c-10 0-15 11-15 35 0 28-4 35-20 35-11 0-20 7-20 15s-7 15-15 15-15 7-15 15-7 15-15 15c-10 0-15 11-15 35s-5 35-15 35c-8 0-15 7-15 15s-9 15-20 15-20 7-20 15-7 15-15 15-15 9-15 20-7 20-15 20-15 7-15 15-7 15-15 15-15 7-15 15-9 15-20 15c-13 0-20 7-20 20 0 11-7 20-15 20s-15 7-15 15-7 15-15 15-15 7-15 15-9 15-20 15-20 7-20 15-7 15-15 15-15 9-15 20-7 20-15 20-15 7-15 15-7 15-15 15-15 7-15 15-9 15-20 15c-13 0-20 7-20 20 0 11-7 20-15 20s-15 7-15 15-7 15-15 15-15 7-15 15-9 15-20 15-20 7-20 15-7 15-15 15-15 9-15 20-7 20-15 20-15 7-15 15-7 15-15 15-15 7-15 15-9 15-20 15-20 7-20 15-7 15-15 15-15 9-15 20-7 20-15 20-15 7-15 15c0 10-11 15-35 15s-35 5-35 15c0 11-12 15-50 15h-50v-65z"/>
  <path d="m9990 4705c0-12-14-15-65-15-58 0-65-2-65-20 0-16-7-20-35-20-24 0-35-5-35-15s-10-15-30-15c-18 0-33-6-36-15-4-9-19-15-35-15-22 0-29-5-29-20 0-16-7-20-35-20-24 0-35-5-35-15 0-8-7-15-15-15s-15-7-15-15-7-15-15-15-15-7-15-15-7-15-16-15-18-9-21-20-12-20-19-20c-9 0-14-11-14-30 0-20-5-30-15-30-8 0-15-9-15-20s-7-20-15-20c-10 0-15-10-15-29 0-20-6-30-20-34-15-4-20-14-20-36 0-21-5-31-15-31-11 0-15-12-15-45s-4-45-15-45c-12 0-15-18-15-100s-3-100-15-100c-11 0-15-11-15-40s4-40 15-40c12 0 15-19 15-110s3-110 15-110c10 0 15-11 15-35s5-35 15-35c11 0 15-12 15-46 0-37 4-47 20-51 11-3 20-12 20-19 0-8 7-14 15-14 10 0 15-11 15-35 0-19 5-35 10-35 13 0 50-37 50-50 0-5 9-10 20-10s20-5 20-11c0-15 74-89 89-89 6 0 11-7 11-15 0-10 10-15 29-15 20 0 30-6 34-20 4-15 14-20 36-20 21 0 31-5 31-15s10-15 30-15 30-5 30-15c0-12 14-15 65-15s65-3 65-15c0-13 28-15 190-15s190 2 190 15c0 12 14 15 65 15s65 3 65 15c0 10 10 15 30 15s30 5 30 15 11 15 35 15c28 0 35 4 35 20 0 11 7 20 15 20s15 7 15 15c0 10 11 15 35 15s35 5 35 15c0 8 7 15 15 15s15 7 15 15 7 15 15 15 15 9 15 20c0 13 7 20 20 20 11 0 20 7 20 15s7 15 15 15c10 0 15 11 15 35s5 35 15 35c8 0 15 7 15 15s9 15 20 15c16 0 20 7 20 30 0 20 5 30 15 30s15 11 15 35 5 35 15 35c11 0 15 12 15 50s4 50 15 50c13 0 15 33 15 235s-2 235-15 235c-11 0-15 12-15 45s-4 45-15 45c-10 0-15 11-15 35s-5 35-15 35-15 10-15 30c0 23-4 30-20 30-13 0-20 7-20 20 0 11-7 20-15 20s-15 7-15 15-7 15-15 15c-10 0-15 10-15 31 0 22-5 32-20 36-11 3-20 12-20 19 0 8-7 14-15 14s-15 7-15 15c0 10-10 15-30 15s-30 5-30 15c0 8-9 15-20 15-13 0-20 7-20 20 0 16-7 20-30 20-20 0-30 5-30 15s-11 15-35 15-35 5-35 15-10 15-29 15c-20 0-30 6-34 20-5 18-14 20-86 20-65 0-81 3-81 15 0 13-22 15-135 15s-135-2-135-15zm230-275c0-18 7-20 65-20 51 0 65-3 65-15 0-10 10-15 29-15 16 0 31-6 35-15 3-8 12-15 21-15 8 0 15-7 15-15 0-10 10-15 30-15 17 0 30-5 30-11 0-15 42-59 58-59 6 0 12-7 12-15s7-15 15-15c10 0 15-11 15-35s5-35 15-35c8 0 15-7 15-15s7-15 15-15c10 0 15-10 14-32 0-30-1-31-9-10-7 16-18 22-40 22-20 0-30 5-30 15 0 11-11 15-35 15-22 0-38-6-41-15-4-9-19-15-35-15-26 0-29-3-29-34 0-25-5-35-20-39-16-4-20-14-20-52s4-48 20-52c11-3 20-12 20-19 0-8 7-14 15-14s15-7 15-15c0-12 14-15 70-15s70 3 70 15c0 8 9 15 20 15s20 7 20 15 7 15 15 15c11 0 15 12 15 50 0 28 5 50 10 50 6 0 10-60 10-159 0-150-1-159-20-164-16-4-20-14-20-51 0-34-4-46-15-46-10 0-15-10-15-30s-5-30-15-30c-8 0-15-7-15-15s-7-15-15-15-15-9-15-20c0-13-7-20-20-20-11 0-20-7-20-15s-4-15-10-15-10 33-10 80v80h-30c-23 0-30 4-30 20 0 18-7 20-55 20s-55-2-55-20c0-13-7-20-20-20-11 0-20-7-20-15s-7-15-15-15c-12 0-15-16-15-85s3-85 15-85c8 0 15-7 15-15 0-11 12-15 50-15s50-4 50-15c0-10-10-15-30-15s-30-5-30-15-10-15-30-15c-18 0-33-6-36-15-5-12-31-15-145-15-117 0-139 2-139 15 0 11-12 15-50 15s-50 4-50 15c0 10-10 15-30 15s-30 5-30 15c0 12 14 15 65 15s65 3 65 15c0 8 7 15 15 15 12 0 15 18 15 100v100h-35c-28 0-35 4-35 20 0 17-7 20-51 20-42 0-52-3-56-20-3-11-12-20-19-20-8 0-14-7-14-15s-7-15-15-15c-12 0-15-14-15-65 0-37-4-65-10-65-5 0-10 7-10 15s-7 15-15 15-15 7-15 16-9 18-20 21-20 12-20 19c0 8-7 14-15 14-10 0-15 10-15 30s-5 30-15 30-15 11-15 35c0 28-4 35-20 35-18 0-20 7-20 80 0 64-3 80-15 80-10 0-15 10-15 30s5 30 15 30c12 0 15 16 15 80 0 47 4 80 10 80s10-32 10-76c0-67 2-76 20-81 11-3 20-12 20-19 0-11 19-14 85-14 69 0 85 3 85 15 0 8 9 15 20 15 18 0 20 7 20 85s-2 85-20 85c-13 0-20 7-20 20 0 11-7 20-15 20s-15 7-15 15c0 12-13 15-55 15s-55-3-55-15c0-8-7-15-15-15s-15-9-15-20-4-20-10-20c-5 0-10 14-10 30 0 20 5 30 15 30s15 11 15 35 5 35 15 35c8 0 15 7 15 15s9 15 20 15 20 7 20 15 7 15 15 15 15 7 15 15 7 15 15 15 15 9 15 20 7 20 15 20 15 7 15 15c0 10 11 15 35 15s35 5 35 15 10 15 30 15 30 5 30 15c0 12 13 15 60 15 33 0 60-4 60-10 0-5-7-10-15-10-12 0-15-18-15-100v-100h29c20 0 30-6 34-20 4-17 14-20 61-20 49 0 56 2 56 20 0 11 7 20 15 20s15 7 15 15 7 15 15 15c12 0 15 14 15 70s-3 70-15 70c-8 0-15 7-15 15s-7 15-15 15-15 7-15 15c0 12-14 15-65 15s-65 3-65 15 15 15 75 15c68 0 75-2 75-20z"/>
  <path d="m10050 4045c0-10-10-15-30-15-19 0-30-5-30-14 0-7-9-16-20-19-15-4-20-14-20-36 0-21-5-31-15-31-12 0-15-16-15-85s3-85 15-85c8 0 15-7 15-15s9-15 20-15c13 0 20-7 20-20 0-11 7-20 15-20s15-7 15-15c0-12 20-15 120-15s120 3 120 15c0 8 7 15 16 15s18 9 21 20 12 20 19 20c10 0 14 13 14 45 0 33 4 45 15 45 9 0 15 9 15 25s-6 25-15 25c-11 0-15 12-15 45s-4 45-15 45c-10 0-15 11-15 35 0 33-2 35-35 35-24 0-35 5-35 15 0 12-17 15-90 15s-90-3-90-15z"/>
  <path d="m11430 4375c0-11-12-15-46-15-37 0-47-4-51-20-5-17-14-20-69-20-50 0-64-3-64-15 0-11-12-15-50-15-37 0-50-4-50-14 0-11-14-16-47-18l-48-3-3-48c-3-42 0-49 17-54 18-5 21-13 21-69 0-50 3-64 15-64 11 0 15-12 15-50s4-50 15-50c12 0 15-13 15-60 0-45 4-62 15-66 11-5 15-22 15-66 0-51 3-61 20-65 17-5 20-14 20-69 0-50 3-64 15-64s15-14 15-65 3-65 15-65 15-16 15-80c0-62 3-82 15-86 11-5 15-22 15-66 0-51 3-61 20-65 17-5 20-14 20-69 0-50 3-64 15-64s15-16 15-80 3-80 15-80 15-16 15-81c0-72 2-81 20-86 17-5 20-14 20-69 0-50 3-64 15-64s15-16 15-80 3-80 15-80 15-16 15-80 3-80 15-80 15-17 15-96c0-87 2-96 20-101s20-14 20-84c0-64 3-79 15-79 8 0 15-9 15-20s7-20 15-20 15-7 15-15c0-12 15-15 75-15s75 3 75 15 16 15 80 15c73 0 80 2 80 20 0 19 7 20 100 20 82 0 100 3 100 15 0 10 10 15 30 15 29 0 30 1 30 50 0 43 3 50 20 50 13 0 20 7 20 20s-7 20-20 20c-18 0-20 7-20 80 0 64-3 80-15 80s-15 14-15 65-3 65-15 65-15 16-15 85c0 78-2 85-20 85s-20 7-20 80c0 64-3 80-15 80s-15 14-15 65-3 65-15 65-15 14-15 65-3 65-15 65-15 14-15 65c0 58-2 65-20 65s-20 7-20 85c0 69-3 85-15 85s-15 14-15 65-3 65-15 65c-11 0-15 12-15 50s-4 50-15 50c-12 0-15 14-15 65 0 58-2 65-20 65s-20 7-20 65c0 51-3 65-15 65s-15 14-15 65-3 65-15 65c-11 0-15 12-15 50 0 43-3 50-20 50-18 0-20 7-20 65 0 51-3 65-15 65-11 0-15 12-15 50s-4 50-15 50c-12 0-15 14-15 65s-3 65-15 65c-11 0-15 12-15 50 0 43-3 50-20 50-11 0-20 7-20 15 0 12-14 15-70 15s-70-3-70-15z"/>
 </g>
</svg>
