<svg width="770" height="645" viewBox="0 0 770 645" fill="none" xmlns="http://www.w3.org/2000/svg">
<path d="M283.268 466.064C313.664 416.467 421.029 296.179 506.847 202.854C531.071 166.093 552.037 134.811 565.016 115.55C504.205 181.656 300.703 404.824 270.456 463.149C274.885 464.029 279.147 465.007 283.268 466.064Z" fill="#242C4D"/>
<path d="M581.103 98.5464C575.785 106.386 553.032 140.043 523.269 185.029C555.303 150.355 583.12 120.69 600.995 101.736C594.338 101.129 587.672 100.092 581.103 98.5464Z" fill="#242C4D"/>
<path d="M287.063 467.062C291.844 468.366 296.414 469.782 300.764 471.275C319.573 437.404 385.675 359.942 454.807 282.761C468.077 262.118 481.32 241.741 493.956 222.461C411.343 312.798 315.126 421.443 287.063 467.062Z" fill="#242C4D"/>
<path d="M304.397 472.567C316.24 476.884 326.322 481.796 334.547 486.818C350.529 449.79 395.146 376.281 441.956 302.837C378.697 373.992 321.083 442.276 304.397 472.567Z" fill="#242C4D"/>
<path d="M553.587 89.3103C549.087 87.7253 544.87 86.3816 540.951 85.2011C508.107 120.71 232.576 419.63 228.701 457.944L224.598 457.715C228.578 418.326 500.217 123.788 537.024 84.0401C533 82.8725 529.319 81.8615 525.973 80.9158L527.664 81.7767C524.556 85.1228 216.973 416.734 212.271 457.813C222.265 457.748 231.819 458.159 240.906 458.955C266.23 399.965 528.43 116.437 553.587 89.3103Z" fill="#242C4D"/>
<path d="M754.23 44.8338C737.394 36.6807 720.62 73.4547 708.653 81.4904C700.781 86.7802 665.841 100.301 626.137 102.226C593.513 136.86 524.611 210.519 458.464 284.354C406.618 365.051 354.525 449.765 337.909 488.939C346.265 494.412 352.403 499.917 356.171 504.828C371 524.187 377.991 534.167 354.472 583.216C330.953 632.259 319.268 631.196 332.159 638.559C345.041 645.923 353.935 655.172 384.129 614.531C414.323 573.889 480.302 522.4 486.113 404.766C491.925 287.132 538.233 252.485 568.761 228.658C599.289 204.838 706.011 156.63 715.882 147.831C725.753 139.032 760.719 95.5269 765.994 76.3246C771.268 57.1223 771.066 52.987 754.23 44.8338Z" fill="#242C4D"/>
<path d="M208.158 457.748C212.314 416.649 507.851 97.7695 524.009 80.3674C498.438 72.9709 494.405 68.1246 512.526 16.3227C512.526 16.3227 520.399 11.0134 508.74 4.86267C497.073 -1.29459 491.807 -6.1604 467.619 20.1515C443.43 46.4633 431.578 42.8433 417.85 82.135C417.85 82.135 416.415 101.063 409.415 127.975C389.611 136.611 352.338 153.12 315.602 170.809C250.785 202.019 224.861 218.893 214.7 228.507C202.372 231.553 194.315 239.784 196.2 248.244C196.349 248.923 196.631 249.562 196.895 250.201C180.887 258.569 159.19 266.422 136.367 274.68C84.0448 293.608 24.749 315.074 5.97576 352.422C-2.55671 369.394 -1.94914 383.423 7.78087 394.12C15.2567 402.339 27.0032 407.224 39.41 410.375C42.4215 411.138 45.4682 411.803 48.506 412.383C59.1078 414.419 69.8857 416.173 80.8308 416.76C91.2301 417.321 101.233 415.103 110.928 412.403C89.8124 411.81 80.5491 398.869 69.4014 387.383C68.4328 394.297 71.4706 408.829 56.9681 405.404C52.1339 404.263 47.062 403.774 42.2102 402.606C32.2952 400.226 22.891 396.188 16.9473 389.672C9.32183 381.291 9.1281 369.7 16.3398 355.357C33.5808 321.062 90.7722 300.333 141.227 282.077C164.227 273.747 186.117 265.816 202.804 257.154C207.004 260.083 212.798 262.033 219.517 262.431C222.105 262.587 224.747 262.502 227.362 262.183C234.451 261.315 240.773 258.785 245.176 255.067C248.671 252.112 250.661 248.688 250.987 245.146C298.51 231.625 361.68 182.308 402.978 149.669C401.05 155.461 398.875 161.442 396.427 167.541C377.988 213.505 351.123 256.508 287.345 299.257C223.567 342.005 171.289 365.747 116.916 430.653C62.5507 495.559 40.8365 522.966 35.6413 532.248C30.4461 541.53 18.1449 548.756 28.6938 555.899C39.2427 563.047 49.6596 571.122 66.1786 550.674C82.6976 530.226 130.775 459.196 210.209 457.891L208.158 457.748ZM220.767 235.799C220.987 235.767 221.19 235.708 221.419 235.682C223.144 235.473 224.87 235.414 226.57 235.512C231.448 235.806 235.551 237.404 237.894 239.68C234.997 240.156 232.196 240.437 229.52 240.502C227.08 240.561 224.782 240.417 222.651 240.098C220.247 239.726 219.587 239.237 219.561 239.243C219.27 238.363 219.693 237.208 220.767 235.799ZM236.854 249.666C234.134 251.969 230.118 253.54 225.557 254.108C216.752 255.191 208.21 251.786 207.127 246.907C206.696 244.963 207.374 243.039 208.871 241.324C209.69 243.6 212.296 246.855 220.397 248.107C223.373 248.564 226.552 248.766 229.854 248.688C232.645 248.622 235.551 248.335 238.527 247.892C238.07 248.505 237.524 249.099 236.854 249.666ZM248.733 237.13C245.387 232.205 238.598 228.69 230.101 227.64C254.254 210.192 317.398 177.938 395.793 143.375C355.455 175.257 293.236 224.006 248.733 237.13Z" fill="#242C4D"/>
<path d="M244.988 459.34C252.499 460.11 259.684 461.147 266.526 462.399C300.947 395.778 549.453 126.861 576.733 97.4382C572.295 96.2315 567.918 94.7901 563.621 93.0746C561.464 92.2137 559.368 91.4114 557.325 90.6548C537.205 112.375 270.436 400.983 244.988 459.34Z" fill="#242C4D"/>
<path d="M605.696 102.102C585.153 123.919 550.116 161.313 510.421 204.512C498.032 223.329 484.798 243.582 471.334 264.382C530.947 198.296 590.19 135.014 620.921 102.408C615.893 102.519 610.803 102.428 605.696 102.102Z" fill="#242C4D"/>
</svg>
