<svg width="1135" height="1136" viewBox="0 0 1135 1136" fill="none" xmlns="http://www.w3.org/2000/svg">
<path d="M428.355 3.85645C423.784 6.14168 416.928 11.9817 413.12 16.8061L406.264 25.6931L405.502 215.875L404.994 405.804H218.113C10.1566 405.804 20.5671 405.042 6.8557 423.07L0 431.957V568.31V704.662L6.8557 713.549C20.5671 731.577 10.1566 730.815 218.113 730.815H404.994V917.697C404.994 1125.65 404.233 1115.24 422.261 1128.95L431.148 1135.81H567.5H703.852L712.739 1128.95C730.767 1115.24 730.006 1125.65 730.006 917.697V730.815H916.887C1124.84 730.815 1114.43 731.577 1128.14 713.549L1135 704.662V568.31V431.957L1128.14 423.07C1114.43 405.042 1124.84 405.804 916.887 405.804H730.006V218.922C730.006 10.9661 730.767 21.6305 712.739 7.66517L703.852 0.809467L570.293 0.301637C450.445 -0.460108 435.972 0.0477222 428.355 3.85645Z" fill="white"/>
</svg>
