<svg width="337" height="327" viewBox="0 0 337 327" fill="none" xmlns="http://www.w3.org/2000/svg">
<g filter="url(#filter0_d)">
<ellipse cx="168.057" cy="159.5" rx="164.057" ry="159.5" fill="#2B3B64"/>
</g>
<path d="M135.751 53.94C134.905 54.3628 133.637 55.4433 132.932 56.3359L131.664 57.9801L131.523 93.1669L131.429 128.307H96.8529C58.3777 128.307 60.3038 128.166 57.7669 131.501L56.4985 133.145V158.373V183.6L57.7669 185.244C60.3038 188.58 58.3777 188.439 96.8529 188.439H131.429V223.015C131.429 261.49 131.288 259.564 134.623 262.101L136.268 263.369H161.495H186.722L188.367 262.101C191.702 259.564 191.561 261.49 191.561 223.015V188.439H226.137C264.613 188.439 262.686 188.58 265.223 185.244L266.492 183.6V158.373V133.145L265.223 131.501C262.686 128.166 264.613 128.307 226.137 128.307H191.561V93.7306C191.561 55.2554 191.702 57.2285 188.367 54.6447L186.722 53.3763L162.012 53.2823C139.838 53.1414 137.16 53.2353 135.751 53.94Z" fill="white"/>
<defs>
<filter id="filter0_d" x="0" y="0" width="336.114" height="327" filterUnits="userSpaceOnUse" color-interpolation-filters="sRGB">
<feFlood flood-opacity="0" result="BackgroundImageFix"/>
<feColorMatrix in="SourceAlpha" type="matrix" values="0 0 0 0 0 0 0 0 0 0 0 0 0 0 0 0 0 0 127 0"/>
<feOffset dy="4"/>
<feGaussianBlur stdDeviation="2"/>
<feColorMatrix type="matrix" values="0 0 0 0 0 0 0 0 0 0 0 0 0 0 0 0 0 0 0.25 0"/>
<feBlend mode="normal" in2="BackgroundImageFix" result="effect1_dropShadow"/>
<feBlend mode="normal" in="SourceGraphic" in2="effect1_dropShadow" result="shape"/>
</filter>
</defs>
</svg>
