<svg width="358" height="347" viewBox="0 0 358 347" fill="none" xmlns="http://www.w3.org/2000/svg">
<g filter="url(#filter0_d)">
<path d="M4 0.903914C4 1.02504 23.6386 27.5507 70.8273 91.1799C82.4337 106.805 92.1928 119.967 104.361 136.399C108.217 141.607 115.325 151.216 120.145 157.716C124.964 164.216 128.94 169.707 129.02 169.909C129.06 170.111 128.177 171.484 127.052 173.018C125.928 174.512 120.426 181.94 114.843 189.49C109.261 197.04 99.261 210.485 92.6747 219.367C86.0884 228.249 77.494 239.877 73.5181 245.206C69.5823 250.536 60.1446 263.253 52.5944 273.468C45.004 283.683 36.7309 294.866 34.1606 298.298C25.4859 310.047 10.7068 329.992 7.41365 334.433C5.56627 336.855 4.12048 338.914 4.2008 338.995C4.28112 339.076 6.28916 338.187 8.6988 337.057C11.0683 335.886 19.8233 331.647 28.0964 327.65C42.2329 320.827 47.0924 318.485 60.747 311.864C71.0683 306.857 77.2932 303.87 81.7108 301.73C88.6988 298.379 116.369 285.015 123.88 281.341C127.655 279.524 132.514 277.142 134.723 276.092C136.932 275.043 141.992 272.58 145.968 270.642C149.944 268.704 154.482 266.524 156.008 265.797C157.574 265.07 162.755 262.527 167.614 260.185C172.434 257.843 176.45 255.905 176.49 255.905C176.53 255.905 181.43 253.564 187.333 250.657C193.237 247.79 198.096 245.408 198.177 245.408C198.217 245.408 202.394 243.39 207.414 240.927C212.474 238.504 218.418 235.597 220.626 234.548C222.875 233.458 227.213 231.358 230.305 229.864C233.398 228.37 238.297 225.988 241.149 224.616C251.189 219.771 266.49 212.342 272.875 209.274C276.41 207.538 280.948 205.398 282.916 204.429C284.924 203.5 289.984 201.037 294.161 198.978C298.377 196.919 303.438 194.456 305.406 193.528C307.414 192.559 314.361 189.208 320.867 186.059C327.373 182.909 336.249 178.63 340.546 176.571C344.843 174.471 349.663 172.13 351.189 171.403L354 169.99L349.382 167.81C346.851 166.598 328.056 157.514 307.614 147.623C272.635 130.666 244.723 117.181 142.353 67.6823C118.94 56.3373 80.6265 37.8056 57.2128 26.4606C10.3052 3.77044 4 0.742419 4 0.903914Z" fill="#252C4B"/>
</g>
<defs>
<filter id="filter0_d" x="0" y="0.898071" width="358" height="346.102" filterUnits="userSpaceOnUse" color-interpolation-filters="sRGB">
<feFlood flood-opacity="0" result="BackgroundImageFix"/>
<feColorMatrix in="SourceAlpha" type="matrix" values="0 0 0 0 0 0 0 0 0 0 0 0 0 0 0 0 0 0 127 0"/>
<feOffset dy="4"/>
<feGaussianBlur stdDeviation="2"/>
<feColorMatrix type="matrix" values="0 0 0 0 0 0 0 0 0 0 0 0 0 0 0 0 0 0 0.25 0"/>
<feBlend mode="normal" in2="BackgroundImageFix" result="effect1_dropShadow"/>
<feBlend mode="normal" in="SourceGraphic" in2="effect1_dropShadow" result="shape"/>
</filter>
</defs>
</svg>
