<svg width="258" height="258" viewBox="0 0 258 258" fill="none" xmlns="http://www.w3.org/2000/svg">
<g filter="url(#filter0_d)">
<circle cx="129" cy="125" r="125" fill="#242C4D"/>
<path d="M124.258 39.2058C100.873 41.4845 82.1139 59.4466 78.3724 83.141C77.108 91.0628 77.7315 99.7146 80.1219 107.387C81.2305 110.948 83.2052 115.434 84.9374 118.335C85.3358 119.012 85.8554 119.92 86.0806 120.311C87.5183 122.928 124.725 183.793 125.176 184.274C126.146 185.306 127.272 185.787 128.761 185.787C130.338 185.787 131.308 185.36 132.347 184.238C132.867 183.668 171.546 120.454 171.546 120.151C171.546 120.116 171.945 119.403 172.43 118.585C180.64 104.646 182.06 87.4312 176.275 72.3174C169.485 54.6223 153.93 42.0719 135.517 39.4729C133.144 39.1346 126.562 38.9922 124.258 39.2058ZM133.3 68.0627C138.583 69.1487 143.225 71.9792 146.585 76.1626C149.461 79.723 151.176 83.7462 151.817 88.3213C152.076 90.1905 151.921 94.5342 151.539 96.35C150.552 100.996 148.404 105.02 145.13 108.366C141.805 111.784 138.046 113.867 133.386 114.9C130.875 115.451 126.648 115.451 124.136 114.9C115.147 112.906 108.356 106.159 106.139 97.0087C105.602 94.7478 105.394 90.6178 105.706 88.3213C106.971 79.3136 112.791 71.9436 120.967 68.9706C124.985 67.5109 129.212 67.2083 133.3 68.0627Z" fill="white"/>
<path d="M168.143 186.097C167.832 186.129 167.226 186.253 166.758 186.364C163.226 187.263 163.555 189.271 167.33 189.988C167.693 190.059 169.165 190.209 170.585 190.32C174.55 190.639 178.878 191.076 182.047 191.474C189.44 192.399 194.565 193.527 194.565 194.224C194.565 194.57 191.881 195.378 188.73 195.984C179.605 197.731 164.94 198.937 146.605 199.451C140.839 199.608 135.074 199.66 126.607 199.627C118.054 199.595 115.907 199.562 109.293 199.354C93.0184 198.839 79.1845 197.653 70.5795 196.023C67.6188 195.469 64.7274 194.693 64.3638 194.361C64.1734 194.192 64.1907 194.139 64.6062 193.911C66.303 192.947 74.7695 191.571 84.3614 190.711C89.14 190.274 89.3651 190.242 90.5252 189.812C91.6332 189.395 92.0661 189.003 92.0661 188.436C92.0661 187.237 90.7329 186.501 88.1185 186.246C87.0624 186.149 86.9239 186.149 85.1751 186.286C84.1536 186.357 81.9548 186.553 80.2926 186.709C63.8098 188.267 54.7719 190.476 53.2136 193.338C51.4476 196.551 59.0484 199.289 75.0984 201.244C92.6894 203.375 120.426 204.281 147.211 203.59C177.614 202.802 199.274 199.986 204.399 196.16C205.524 195.313 205.888 194.309 205.403 193.39C203.897 190.574 195.274 188.384 179.415 186.781C173.078 186.142 169.632 185.934 168.143 186.097Z" fill="white"/>
</g>
<defs>
<filter id="filter0_d" x="0" y="0" width="258" height="258" filterUnits="userSpaceOnUse" color-interpolation-filters="sRGB">
<feFlood flood-opacity="0" result="BackgroundImageFix"/>
<feColorMatrix in="SourceAlpha" type="matrix" values="0 0 0 0 0 0 0 0 0 0 0 0 0 0 0 0 0 0 127 0"/>
<feOffset dy="4"/>
<feGaussianBlur stdDeviation="2"/>
<feColorMatrix type="matrix" values="0 0 0 0 0 0 0 0 0 0 0 0 0 0 0 0 0 0 0.25 0"/>
<feBlend mode="normal" in2="BackgroundImageFix" result="effect1_dropShadow"/>
<feBlend mode="normal" in="SourceGraphic" in2="effect1_dropShadow" result="shape"/>
</filter>
</defs>
</svg>
