<svg width="400" height="276" viewBox="0 0 400 276" fill="none" xmlns="http://www.w3.org/2000/svg">
<path d="M25 3.5H396.5V271.729H3.5V25C3.5 13.1259 13.1259 3.5 25 3.5Z" fill="#F6F6F6" stroke="#252C4B" stroke-width="7"/>
<path d="M294.954 225.711C288.819 225.891 282.769 226.86 277.064 228.576C273.266 229.765 269.238 230.481 265.138 230.696C261.037 230.481 257.009 229.765 253.211 228.576C247.506 226.86 241.456 225.891 235.321 225.711C229.186 225.891 223.136 226.86 217.431 228.576C213.633 229.765 209.605 230.481 205.505 230.696C201.404 230.481 197.376 229.765 193.578 228.576C187.873 226.86 181.823 225.891 175.688 225.711C169.553 225.891 163.503 226.86 157.798 228.576C154 229.765 149.972 230.481 145.872 230.696C141.771 230.481 137.743 229.765 133.945 228.576C128.24 226.86 122.19 225.891 116.055 225.711C109.92 225.891 103.87 226.86 98.1651 228.576C94.3668 229.765 90.3393 230.481 86.2385 230.696V244.228C92.3736 244.048 98.4233 243.079 104.128 241.364C107.916 240.129 111.944 239.367 116.055 239.108C120.166 239.367 124.194 240.129 127.982 241.364C133.687 243.079 139.737 244.048 145.872 244.228C152.007 244.048 158.056 243.079 163.761 241.364C167.549 240.129 171.577 239.367 175.688 239.108C179.789 239.323 183.817 240.039 187.615 241.228C193.305 243.001 199.357 244.016 205.505 244.228C211.64 244.048 217.689 243.079 223.395 241.364C227.182 240.129 231.21 239.367 235.321 239.108C239.432 239.367 243.46 240.129 247.248 241.364C252.953 243.079 259.003 244.048 265.138 244.228C271.273 244.048 277.322 243.079 283.028 241.364C286.815 240.129 290.843 239.367 294.954 239.108C299.055 239.323 303.083 240.039 306.881 241.228C312.571 243.001 318.623 244.016 324.771 244.228V230.696C320.67 230.481 316.642 229.765 312.844 228.576C307.139 226.86 301.089 225.891 294.954 225.711Z" fill="#252C4B"/>
<path d="M312.844 201.512C307.139 199.796 301.089 198.827 294.954 198.647C288.819 198.827 282.769 199.796 277.064 201.512C273.266 202.701 269.238 203.416 265.137 203.632C261.037 203.416 257.009 202.701 253.211 201.512C251.139 200.899 249.018 200.387 246.86 199.978C221.993 191.43 209.291 174.222 211.08 160.915C212.571 149.435 221.695 136.512 238.213 135.227C254.135 133.881 268.714 142.091 271.578 154.014C271.976 156.038 274.364 157.492 277.064 157.352C278.496 157.252 279.816 156.725 280.732 155.886C281.618 155.039 282.015 153.958 281.835 152.886C276.498 122.777 241.016 102.547 199.541 105.772C177.03 107.531 155.89 118.176 136.688 137.347C134.124 139.895 131.619 142.466 129.115 145.038C115.787 158.57 103.085 171.651 86.3577 180.492V217.164C92.4927 216.984 98.5425 216.015 104.248 214.299C108.035 213.064 112.063 212.302 116.174 212.044C120.285 212.302 124.313 213.064 128.101 214.299C133.768 216.005 139.777 216.974 145.871 217.164C152.006 216.984 158.056 216.015 163.761 214.299C167.549 213.064 171.577 212.302 175.688 212.044C179.789 212.259 183.817 212.975 187.615 214.164C193.305 215.937 199.357 216.951 205.504 217.164C211.639 216.984 217.689 216.015 223.394 214.299C227.182 213.064 231.21 212.303 235.321 212.044C239.432 212.303 243.46 213.064 247.248 214.299C252.953 216.015 259.002 216.984 265.137 217.164C271.273 216.984 277.322 216.015 283.027 214.299C286.815 213.064 290.843 212.303 294.954 212.044C299.055 212.259 303.083 212.975 306.881 214.164C312.571 215.937 318.623 216.951 324.77 217.164V203.632C320.67 203.416 316.642 202.701 312.844 201.512Z" fill="#252C4B"/>
<path d="M73.0037 53.8335C73.0037 52.45 72.5154 51.3921 71.5388 50.6597C70.5623 49.911 68.8045 49.1297 66.2654 48.3159C63.7263 47.4858 61.7162 46.672 60.2351 45.8745C56.1987 43.6935 54.1804 40.7557 54.1804 37.061C54.1804 35.1405 54.7175 33.4315 55.7918 31.9341C56.8823 30.4204 58.4366 29.2404 60.4548 28.394C62.4894 27.5477 64.768 27.1245 67.2908 27.1245C69.8298 27.1245 72.0922 27.5884 74.0779 28.5161C76.0636 29.4276 77.6017 30.7215 78.6922 32.3979C79.7989 34.0744 80.3523 35.9787 80.3523 38.1108H73.0281C73.0281 36.4832 72.5154 35.2218 71.49 34.3267C70.4646 33.4152 69.0242 32.9595 67.1687 32.9595C65.3784 32.9595 63.9868 33.342 62.9939 34.1069C62.0011 34.8556 61.5047 35.8485 61.5047 37.0854C61.5047 38.241 62.0825 39.2095 63.2381 39.9907C64.4099 40.772 66.127 41.5044 68.3894 42.188C72.5561 43.4412 75.5916 44.9956 77.4959 46.8511C79.4002 48.7065 80.3523 51.0177 80.3523 53.7847C80.3523 56.8608 79.1886 59.2778 76.8611 61.0356C74.5336 62.7772 71.4005 63.6479 67.4617 63.6479C64.7273 63.6479 62.2371 63.1515 59.991 62.1587C57.7449 61.1496 56.0278 59.7743 54.8396 58.0327C53.6677 56.2912 53.0818 54.2729 53.0818 51.978H60.4304C60.4304 55.9006 62.7742 57.8618 67.4617 57.8618C69.2032 57.8618 70.5623 57.5119 71.5388 56.812C72.5154 56.0959 73.0037 55.103 73.0037 53.8335ZM97.0271 63.6479C93.1534 63.6479 89.9959 62.4598 87.5545 60.0835C85.1293 57.7072 83.9168 54.5415 83.9168 50.5864V49.9028C83.9168 47.2498 84.4295 44.8817 85.4548 42.7983C86.4802 40.6987 87.9288 39.0874 89.8006 37.9644C91.6886 36.825 93.837 36.2554 96.2459 36.2554C99.8591 36.2554 102.699 37.3947 104.766 39.6733C106.85 41.952 107.891 45.1828 107.891 49.3657V52.2466H91.0701C91.2979 53.9718 91.9815 55.3553 93.1209 56.397C94.2765 57.4386 95.7332 57.9595 97.491 57.9595C100.209 57.9595 102.333 56.9748 103.863 55.0054L107.33 58.8872C106.272 60.3846 104.84 61.5565 103.033 62.4028C101.226 63.2329 99.2244 63.6479 97.0271 63.6479ZM96.2215 41.9683C94.8217 41.9683 93.6824 42.4403 92.8035 43.3843C91.9409 44.3283 91.3875 45.6792 91.1433 47.437H100.958V46.8755C100.925 45.313 100.502 44.1086 99.6882 43.2622C98.8744 42.3996 97.7188 41.9683 96.2215 41.9683ZM127.227 63.1597C126.902 62.5249 126.666 61.7355 126.519 60.7915C124.81 62.6958 122.589 63.6479 119.854 63.6479C117.266 63.6479 115.118 62.8993 113.409 61.4019C111.716 59.9045 110.87 58.0164 110.87 55.7378C110.87 52.9383 111.903 50.7899 113.97 49.2925C116.054 47.7951 119.057 47.0382 122.979 47.022H126.226V45.5083C126.226 44.2876 125.909 43.311 125.274 42.5786C124.656 41.8462 123.671 41.48 122.32 41.48C121.132 41.48 120.196 41.7648 119.512 42.3345C118.845 42.9041 118.511 43.6854 118.511 44.6782H111.456C111.456 43.1483 111.928 41.7323 112.872 40.4302C113.816 39.1281 115.15 38.1108 116.876 37.3784C118.601 36.6297 120.538 36.2554 122.686 36.2554C125.942 36.2554 128.521 37.0773 130.426 38.7212C132.346 40.3488 133.306 42.6437 133.306 45.606V57.0562C133.323 59.5627 133.673 61.4588 134.356 62.7446V63.1597H127.227ZM121.392 58.2524C122.434 58.2524 123.394 58.0246 124.273 57.5688C125.152 57.0968 125.803 56.4702 126.226 55.689V51.1479H123.59C120.058 51.1479 118.178 52.3687 117.95 54.8101L117.926 55.2251C117.926 56.104 118.235 56.8283 118.853 57.3979C119.472 57.9676 120.318 58.2524 121.392 58.2524ZM179.547 51.3188C179.27 55.1437 177.854 58.1548 175.299 60.3521C172.76 62.5493 169.407 63.6479 165.24 63.6479C160.683 63.6479 157.094 62.118 154.473 59.0581C151.869 55.9819 150.567 51.7664 150.567 46.4116V44.2388C150.567 40.8208 151.169 37.8097 152.374 35.2056C153.578 32.6014 155.295 30.6076 157.525 29.2241C159.771 27.8244 162.375 27.1245 165.338 27.1245C169.439 27.1245 172.743 28.2231 175.25 30.4204C177.756 32.6177 179.205 35.702 179.595 39.6733H172.271C172.092 37.3784 171.449 35.7183 170.343 34.6929C169.252 33.6512 167.584 33.1304 165.338 33.1304C162.896 33.1304 161.065 34.0093 159.844 35.7671C158.64 37.5086 158.022 40.2186 157.989 43.897V46.5825C157.989 50.4237 158.567 53.2313 159.722 55.0054C160.894 56.7795 162.733 57.6665 165.24 57.6665C167.502 57.6665 169.187 57.1538 170.294 56.1284C171.417 55.0868 172.06 53.4836 172.222 51.3188H179.547ZM182.794 49.7075C182.794 47.0871 183.298 44.7515 184.307 42.7007C185.317 40.6499 186.765 39.063 188.653 37.9399C190.557 36.8169 192.763 36.2554 195.269 36.2554C198.834 36.2554 201.739 37.3459 203.985 39.5269C206.247 41.7078 207.509 44.6701 207.769 48.4136L207.818 50.2202C207.818 54.2729 206.687 57.5282 204.425 59.9858C202.162 62.4272 199.127 63.6479 195.318 63.6479C191.51 63.6479 188.466 62.4272 186.187 59.9858C183.925 57.5444 182.794 54.2241 182.794 50.0249V49.7075ZM189.849 50.2202C189.849 52.7267 190.321 54.6473 191.265 55.9819C192.209 57.3003 193.56 57.9595 195.318 57.9595C197.027 57.9595 198.362 57.3084 199.322 56.0063C200.282 54.688 200.762 52.5884 200.762 49.7075C200.762 47.2498 200.282 45.3455 199.322 43.9946C198.362 42.6437 197.011 41.9683 195.269 41.9683C193.544 41.9683 192.209 42.6437 191.265 43.9946C190.321 45.3293 189.849 47.4045 189.849 50.2202ZM218.658 36.7437L218.878 39.7954C220.766 37.4354 223.297 36.2554 226.47 36.2554C229.27 36.2554 231.353 37.0773 232.72 38.7212C234.088 40.3651 234.788 42.8228 234.82 46.0942V63.1597H227.764V46.2651C227.764 44.7677 227.439 43.6854 226.788 43.0181C226.137 42.3345 225.054 41.9927 223.541 41.9927C221.555 41.9927 220.066 42.839 219.073 44.5317V63.1597H212.017V36.7437H218.658ZM239.093 49.7563C239.093 45.6385 240.012 42.3589 241.851 39.9175C243.707 37.4761 246.238 36.2554 249.444 36.2554C252.016 36.2554 254.14 37.2157 255.816 39.1362V25.6597H262.896V63.1597H256.524L256.182 60.3521C254.425 62.5493 252.162 63.6479 249.395 63.6479C246.287 63.6479 243.788 62.4272 241.9 59.9858C240.028 57.5282 239.093 54.1183 239.093 49.7563ZM246.148 50.269C246.148 52.743 246.58 54.6392 247.442 55.9575C248.305 57.2759 249.558 57.9351 251.202 57.9351C253.383 57.9351 254.921 57.0155 255.816 55.1763V44.7515C254.937 42.9123 253.415 41.9927 251.251 41.9927C247.849 41.9927 246.148 44.7515 246.148 50.269ZM275.811 63.1597H268.731V36.7437H275.811V63.1597ZM268.316 29.9077C268.316 28.8498 268.666 27.979 269.366 27.2954C270.082 26.6118 271.051 26.27 272.271 26.27C273.476 26.27 274.436 26.6118 275.152 27.2954C275.868 27.979 276.226 28.8498 276.226 29.9077C276.226 30.9819 275.86 31.8608 275.128 32.5444C274.412 33.228 273.459 33.5698 272.271 33.5698C271.083 33.5698 270.123 33.228 269.39 32.5444C268.674 31.8608 268.316 30.9819 268.316 29.9077ZM290.094 30.2495V36.7437H294.61V41.9194H290.094V55.103C290.094 56.0796 290.281 56.7795 290.655 57.2026C291.029 57.6258 291.746 57.8374 292.803 57.8374C293.585 57.8374 294.276 57.7804 294.879 57.6665V63.0132C293.495 63.4364 292.071 63.6479 290.606 63.6479C285.658 63.6479 283.136 61.1496 283.038 56.1528V41.9194H279.18V36.7437H283.038V30.2495H290.094ZM305.987 63.1597H298.907V36.7437H305.987V63.1597ZM298.492 29.9077C298.492 28.8498 298.842 27.979 299.542 27.2954C300.258 26.6118 301.226 26.27 302.447 26.27C303.651 26.27 304.612 26.6118 305.328 27.2954C306.044 27.979 306.402 28.8498 306.402 29.9077C306.402 30.9819 306.036 31.8608 305.303 32.5444C304.587 33.228 303.635 33.5698 302.447 33.5698C301.259 33.5698 300.299 33.228 299.566 32.5444C298.85 31.8608 298.492 30.9819 298.492 29.9077ZM310.723 49.7075C310.723 47.0871 311.228 44.7515 312.237 42.7007C313.246 40.6499 314.695 39.063 316.583 37.9399C318.487 36.8169 320.692 36.2554 323.199 36.2554C326.763 36.2554 329.669 37.3459 331.915 39.5269C334.177 41.7078 335.439 44.6701 335.699 48.4136L335.748 50.2202C335.748 54.2729 334.617 57.5282 332.354 59.9858C330.092 62.4272 327.056 63.6479 323.248 63.6479C319.439 63.6479 316.396 62.4272 314.117 59.9858C311.855 57.5444 310.723 54.2241 310.723 50.0249V49.7075ZM317.779 50.2202C317.779 52.7267 318.251 54.6473 319.195 55.9819C320.139 57.3003 321.49 57.9595 323.248 57.9595C324.957 57.9595 326.291 57.3084 327.252 56.0063C328.212 54.688 328.692 52.5884 328.692 49.7075C328.692 47.2498 328.212 45.3455 327.252 43.9946C326.291 42.6437 324.941 41.9683 323.199 41.9683C321.474 41.9683 320.139 42.6437 319.195 43.9946C318.251 45.3293 317.779 47.4045 317.779 50.2202ZM346.588 36.7437L346.807 39.7954C348.695 37.4354 351.226 36.2554 354.4 36.2554C357.2 36.2554 359.283 37.0773 360.65 38.7212C362.017 40.3651 362.717 42.8228 362.75 46.0942V63.1597H355.694V46.2651C355.694 44.7677 355.369 43.6854 354.718 43.0181C354.067 42.3345 352.984 41.9927 351.47 41.9927C349.485 41.9927 347.996 42.839 347.003 44.5317V63.1597H339.947V36.7437H346.588Z" fill="#2B3B64"/>
</svg>
