<svg xmlns="http://www.w3.org/2000/svg" viewBox="0 0 366.6 285.41"><path d="M252,172.23a60.66,60.66,0,0,1,81.27,55.06h.43A41.66,41.66,0,0,1,345.64,229a82.56,82.56,0,1,0-137.92-90.8A74.53,74.53,0,0,1,252,172.23Z" transform="translate(-67.58 -25.18)" fill="#252c4b" stroke="#fcfcfc" stroke-miterlimit="10"/><circle cx="120.28" cy="184.73" r="68.27" fill="#252c4b" stroke="#fcfcfc" stroke-miterlimit="10"/><circle cx="205.09" cy="204.06" r="54.52" fill="#252c4b" stroke="#fcfcfc" stroke-miterlimit="10"/><path d="M306.05,237.86a41.41,41.41,0,1,1,27.64,72.24H120.55a52.47,52.47,0,1,1,27.7-97" transform="translate(-67.58 -25.18)" fill="#252c4b" stroke="#fcfcfc" stroke-miterlimit="10"/><path d="M217.36,108.69,173.73,65.06l-12.6,12.61,43.62,43.62A95,95,0,0,1,217.36,108.69Z" transform="translate(-67.58 -25.18)" fill="#252c4b" stroke="#fcfcfc" stroke-miterlimit="10"/><path d="M277.72,87c3,0,6,.15,8.91.43V25.68H268.8V87.39C271.74,87.11,274.71,87,277.72,87Z" transform="translate(-67.58 -25.18)" fill="#252c4b" stroke="#fcfcfc" stroke-miterlimit="10"/><path d="M350.68,121.29,394.3,77.67,381.7,65.06l-43.63,43.63A95,95,0,0,1,350.68,121.29Z" transform="translate(-67.58 -25.18)" fill="#252c4b" stroke="#fcfcfc" stroke-miterlimit="10"/><path d="M372,172.74c.27,2.93.43,5.9.43,8.91s-.16,6-.43,8.91h61.7V172.74Z" transform="translate(-67.58 -25.18)" fill="#252c4b" stroke="#fcfcfc" stroke-miterlimit="10"/></svg>