<svg xmlns="http://www.w3.org/2000/svg" viewBox="0 0 443.51 253.53"><path d="M471.45,289.51c-14.05,0-41.38-9.37-55.43-9.37s-41.39,9.37-55.44,9.37-41.38-9.37-55.44-9.37-41.38,9.37-55.44,9.37-41.38-9.37-55.44-9.37-41.38,9.37-55.44,9.37-41.38-9.37-55.43-9.37S42,289.51,28,289.51" transform="translate(-27.95 -42.48)" fill="none" stroke="#252c4b" stroke-miterlimit="10" stroke-width="13"/><path d="M332.87,221.4c10.84,3.41,22.06,5.3,33.34,4.39,19.36-1.58,37.59-11,57.32-8.39,16,2.12,31.73,8.73,47.92,8.73v24.23c-14.05,0-41.38-9.36-55.43-9.36s-41.39,9.36-55.44,9.36S319.2,241,305.14,241s-41.38,9.36-55.44,9.36S208.32,241,194.26,241s-41.38,9.36-55.44,9.36S97.44,241,83.39,241,42,250.36,28,250.36V183.45c44.63-22.66,74.42-64,112-95.83a216,216,0,0,1,31.27-22.41A171,171,0,0,1,274,43.41C317.15,48,366.39,70,386.17,110.76c3,6.18,12.2,23.86,2.54,28.68-12.21,6.1-18-14.68-23.1-21.32a48,48,0,0,0-16.81-13.46c-40-20.16-97.68,9.3-85.87,58.35,3,12.52,10.86,23.39,20.41,31.85,9,8,19.64,14,30.57,19.07A159.47,159.47,0,0,0,332.87,221.4Z" transform="translate(-27.95 -42.48)" fill="#252c4b"/></svg>